<svg fill="#f2f2f2" height="512pt" viewBox="0 0 512 512" width="512pt" xmlns="http://www.w3.org/2000/svg"><path d="m267.996094 158.992188v-56.992188h-25.121094c-4.921875 26.644531-16.300781 64.875-64.875 74.808594v39.191406h33c8.289062 0 15 6.714844 15 15.007812v114.792969c0 30.730469 20.582031 66.605469 78.605469 66.605469 13.371093 0 26.21875-.644531 35.390625-1.261719v-43.140625h-30.601563c-36.476562 0-41.398437-20.933594-41.398437-41.410156v-95.589844c0-8.289062 6.710937-15.003906 15-15.003906h57v-42h-57c-8.289063 0-15-6.714844-15-15.007812zm0 0"/><path d="m437 0h-362c-41.351562 0-75 33.648438-75 75v362c0 41.351562 33.648438 75 75 75h362c41.351562 0 75-33.648438 75-75v-362c0-41.351562-33.648438-75-75-75zm-67 231.007812c0 8.289063-6.714844 15-15.007812 15h-56.992188v80.585938c0 7.515625.660156 9.621094.96875 10.207031h.011719c.207031 0 2.710937 1.199219 10.417969 1.199219h45.597656c8.289062 0 14.003906 6.714844 14.003906 15.007812v71.996094c0 7.703125-4.851562 14.148438-12.511719 14.925782-1.011719.101562-25.046875 2.476562-51.882812 2.476562-74.621094 0-108.605469-50.082031-108.605469-96.605469v-99.792969h-33.003906c-8.289063 0-15-6.710937-15-15v-67.207031c0-7.808593 5.976562-14.296875 13.757812-14.941406 40.589844-3.398437 47.605469-27.378906 53.085938-60.910156l.570312-3.425781c1.199219-7.222657 7.453125-12.523438 14.792969-12.523438h52.792969c8.292968 0 14.003906 6.707031 14.003906 15v56.996094h57.992188c8.292968 0 15.007812 6.707031 15.007812 15zm0 0"/></svg>